# xmcd
# 
# Track frame offsets:
#     150
#     14553
#     29748
#     48627
#     66299
#     81738
#     96773
#     115012
#     133973
#     149554
#     165264
#     181723
# 
# Disc length: 2604
# 
# Revision: 1
# Processed by: cddbd v1.5.2PL0 Copyright (c) Steve Scherf et al.
# Submitted via: BonkEnc v1.0.15
# 
DISCID=af0a2a0c
DTITLE=OLIVER DRA - Za sva vremena
DYEAR=1987
DGENRE=Zabavni
TTITLE0=Mižerja
TTITLE1=Skalinada
TTITLE2=Karoca
TTITLE3=Oprosti mi pape
TTITLE4=Malinkonija
TTITLE5=Poeta
TTITLE6=Dišperadun
TTITLE7=Galeb i ja
TTITLE8=Piva klapa ispo' volta
TTITLE9=Luce mala
TTITLE10=A vitar puše
TTITLE11=Romanca
EXTD=
EXTT0=
EXTT1=
EXTT2=
EXTT3=
EXTT4=
EXTT5=
EXTT6=
EXTT7=
EXTT8=
EXTT9=
EXTT10=
EXTT11=
PLAYORDER=
